{"title":"Falling.Skies.S05E05.HDTV.480p.x264.AAC-VYTO [P2PDL]","uid":12164043,"size":147361292,"categoryP":"video","categoryS":"hd___tv_shows","magnet":"?xt=urn:btih:334334b2c651bd51be72965d30dbdaaa890b87c9&amp;dn=Falling.Skies.S05E05.HDTV.480p.x264.AAC-VYTO+%5BP2PDL%5D&amp;tr=udp%3A%2F%2Ftracker.openbittorrent.com%3A80&amp;tr=udp%3A%2F%2Fopen.demonii.com%3A1337&amp;tr=udp%3A%2F%2Ftracker.coppersurfer.tk%3A6969&amp;tr=udp%3A%2F%2Fexodus.desync.com%3A6969","seeders":2,"leechers":0,"uploader":"ValidusVyto","files":5,"time":1437990824,"description":"____    ____ ____    ____ .___________.  ______   \n     /   /      /   / |           | /  __    \n    /   /      /   /  `---|  |----`|  |  |  | \n        /     _    _/       |  |     |  |  |  | \n       /        |  |         |  |     |  `--'  | \n    __/         |__|         |__|      ______/  \n                                                  \nPresenting Small Encodes with quality for years!\n                                                                                                   \n                                                                                                   \n\nFalling.Skies.S05E05.HDTV.480p.x264.AAC-VYTO\n\n\n\nGeneral\nFormat                         : MPEG-4\nFile size                      : 140 MiB\nDuration                       : 42mn 19s\nOverall bit rate               : 464 Kbps\n\nVideo\nFormat                         : AVC\nDuration                       : 42mn 19s\nBit rate                       : 429 Kbps\nWidth                          : 720 pixels\nHeight                         : 400 pixels\nDisplay aspect ratio           : 16:9\nFrame rate mode                : Constant\nFrame rate                     : 23.976 fps\nBit depth                      : 8 bits\nStream size                    : 130 MiB (92%)\nWriting library                : x264 core 146 r2538 121396c\n\nAudio\nFormat                         : AAC\nBit rate mode                  : Variable\nBit rate                       : 32.0 Kbps\nChannel(s)                     : 2 channels\nChannel positions              : Front: L R\nSampling rate                  : 48.0 KHz\nStream size                    : 9.69 MiB (7%\n\n\n\nScreenshots:\n &lt;a href=&quot;\nhttp://ititli.com/XD&quot; rel=&quot;nofollow&quot; target=&quot;_NEW&quot;&gt;\nhttp://ititli.com/XD&lt;/a&gt; &lt;a href=&quot;\nhttp://ititli.com/Xa&quot; rel=&quot;nofollow&quot; target=&quot;_NEW&quot;&gt;\nhttp://ititli.com/Xa&lt;/a&gt; &lt;a href=&quot;\nhttp://ititli.com/Xb&quot; rel=&quot;nofollow&quot; target=&quot;_NEW&quot;&gt;\nhttp://ititli.com/Xb&lt;/a&gt; &lt;a href=&quot;\nhttp://ititli.com/Xz&quot; rel=&quot;nofollow&quot; target=&quot;_NEW&quot;&gt;\nhttp://ititli.com/Xz&lt;/a&gt; &lt;a href=&quot;\nhttp://ititli.com/XI&quot; rel=&quot;nofollow&quot; target=&quot;_NEW&quot;&gt;\nhttp://ititli.com/XI&lt;/a&gt; &lt;a href=&quot;\nhttp://ititli.com/XO&quot; rel=&quot;nofollow&quot; target=&quot;_NEW&quot;&gt;\nhttp://ititli.com/XO&lt;/a&gt; &lt;a href=&quot;\nhttp://ititli.com/q9&quot; rel=&quot;nofollow&quot; target=&quot;_NEW&quot;&gt;\nhttp://ititli.com/q9&lt;/a&gt; &lt;a href=&quot;\nhttp://ititli.com/qX&quot; rel=&quot;nofollow&quot; target=&quot;_NEW&quot;&gt;\nhttp://ititli.com/qX&lt;/a&gt; &lt;a href=&quot;\nhttp://ititli.com/qq&quot; rel=&quot;nofollow&quot; target=&quot;_NEW&quot;&gt;\nhttp://ititli.com/qq&lt;/a&gt;\n\n----------------------------------------------------------------------------------------------------\n\n\nEncoder Notes: Looking For Early Access To Anything You Can Provide DVDScr, R5, DVDR, BluRay, Direct\nAudio, Music Releases and Seedboxes. If You Got anything to offer please contact us.\n\nSupport us by donating BC - 1FgwdzPsd1y25Gea8wP1qni35uGCtmkRCD","torrent":{"xt":"urn:btih:334334b2c651bd51be72965d30dbdaaa890b87c9","amp;dn":"Falling.Skies.S05E05.HDTV.480p.x264.AAC-VYTO+%5BP2PDL%5D","amp;tr":["udp%3A%2F%2Ftracker.openbittorrent.com%3A80","udp%3A%2F%2Fopen.demonii.com%3A1337","udp%3A%2F%2Ftracker.coppersurfer.tk%3A6969","udp%3A%2F%2Fexodus.desync.com%3A6969"],"infoHash":"334334b2c651bd51be72965d30dbdaaa890b87c9","infoHashBuffer":{"type":"Buffer","data":[51,67,52,178,198,81,189,81,190,114,150,93,48,219,218,170,137,11,135,201]},"announce":[],"urlList":[]}}